// Use DBML to define your database structure
// Docs: https://dbml.dbdiagram.io/docs

Project market_sentinel {
  database_type: 'PostgreSQL'
}

Table market_sentinel.stock_tickers {
  "code" varchar [pk, unique, not null]
  "exchange" varchar

  indexes {
    "code"
  }
}

Table market_sentinel.stock_general_info {
  "stock_ticker_code" varchar [pk, ref: - market_sentinel.stock_tickers.code]
  "name" varchar
  "description" varchar
  "sector" varchar
  "industry" varchar
  "updated_at" timestamp [default: `now()`]

  indexes { 
    "stock_ticker_code"
    "sector"
    "industry"
  }
}

Table market_sentinel.stock_predictions {
  "stock_ticker_code" varchar [pk, ref: - market_sentinel.stock_tickers.code]
  "profit_prediction_by_trailing_pe" float
  "profit_prediction_by_forward_pe" float
  "growth_1y_prediction" float
  "updated_at" timestamp [default: `now()`]

  indexes {
    "stock_ticker_code"
    "profit_prediction_by_forward_pe"
    "profit_prediction_by_trailing_pe"
    "growth_1y_prediction" 
  }
}

Table market_sentinel.stock_consensus_history {
  "stock_ticker_code" varchar [ref: > market_sentinel.stock_tickers.code]
  "wallstreet_target_price" float
  "analyst_rating" float
  "analyst_target_price" float
  "analyst_strong_buy" float
  "analyst_buy" float
  "analyst_hold" float
  "analyst_sell" float
  "analyst_strong_sell" float
  "date" date
  "updated_at" timestamp [default: `now()`]

  indexes {
    ("stock_ticker_code", "date") [pk]
    "stock_ticker_code"
    "analyst_rating"
    "analyst_strong_buy"
    "analyst_buy"
    "analyst_hold"
    "analyst_sell"
    "analyst_strong_sell"
  }
}

Table market_sentinel.stock_fundamentals_history {
  "stock_ticker_code" varchar [ref: > market_sentinel.stock_tickers.code]
  "trailing_pe" float
  "forward_pe" float
  "profit_margin" float
  "dividend_yield" float
  "operating_margin_ttm" float
  "market_capitalization" float
  "date" date
  "created_at" timestamp [default: `now()`]
  "updated_at" timestamp [default: `now()`]

  indexes {
    ("stock_ticker_code", "date") [pk]
    "stock_ticker_code"
    "trailing_pe"
    "forward_pe"
    "profit_margin"
    "dividend_yield"
    "operating_margin_ttm"
    "market_capitalization"
    "updated_at"
  }
}

Table market_sentinel.stock_islamic_compliance_history {
  "stock_ticker_code" varchar [ref: > market_sentinel.stock_tickers.code]
  "rating" int
  "date" date

  indexes {
    ("stock_ticker_code", "date") [pk]
    "stock_ticker_code"
    "rating"
  }
}

Table market_sentinel.stock_market_highlights_history {
  "stock_ticker_code" varchar [ref: > market_sentinel.stock_tickers.code]
  "average_trailing_pe" float
  "average_forward_pe" float
  "sector" varchar
  "industry" varchar
  "date" date
  "updated_at" timestamp [default: `now()`]

  indexes {
    ("stock_ticker_code", "date") [pk]
    "stock_ticker_code"
    "average_trailing_pe"
    "average_forward_pe"
    "sector"
    "industry"
    "updated_at"
  }
}

Table market_sentinel.stock_eods {
  "stock_ticker_code" varchar [ref: > market_sentinel.stock_tickers.code]
  "date" date
  "open" float
  "high" float
  "low" float
  "close" float
  "adjusted_close" float
  "volume" int

  indexes {
    ("stock_ticker_code", "date") [pk]
    "volume"
  }
}